<?xml version="1.0" encoding="UTF-8"?>
<svg xmlns="http://www.w3.org/2000/svg" xmlns:xlink="http://www.w3.org/1999/xlink" width="35pt" height="35pt" viewBox="0 0 35 35" version="1.1">
<g id="surface1">
<path style=" stroke:none;fill-rule:nonzero;fill:rgb(0%,0%,0%);fill-opacity:1;" d="M 19 8.683594 C 19 7.109375 19 0 19 0 L 15.972656 0 C 15.972656 0 15.972656 7.109375 15.972656 8.683594 C 15.972656 10.257812 13.011719 12.167969 13.011719 14.410156 C 13.011719 16.652344 13.011719 32.875 13.011719 33.449219 C 13.011719 34.019531 13.394531 34.972656 14.253906 34.972656 C 14.835938 34.972656 16.273438 34.972656 17.140625 34.972656 C 17.550781 34.972656 17.832031 34.972656 17.832031 34.972656 C 18.699219 34.972656 20.136719 34.972656 20.71875 34.972656 C 21.578125 34.972656 21.960938 34.019531 21.960938 33.449219 C 21.960938 32.875 21.960938 16.652344 21.960938 14.410156 C 21.960938 12.167969 19 10.257812 19 8.683594 Z M 16.625 11.234375 C 16.433594 11.496094 16.21875 11.824219 15.988281 12.203125 C 15.75 12.585938 15.527344 13.03125 15.300781 13.511719 C 15.214844 13.761719 15.125 14.019531 15.054688 14.277344 C 15.050781 14.550781 14.964844 14.753906 15 15.097656 C 15.023438 15.734375 15.050781 16.40625 15.074219 17.101562 C 15.121094 18.492188 15.128906 19.976562 15.140625 21.457031 C 15.136719 24.425781 15.046875 27.390625 14.910156 29.617188 C 14.847656 30.730469 14.75 31.65625 14.703125 32.304688 C 14.644531 32.953125 14.597656 33.324219 14.597656 33.324219 C 14.597656 33.324219 14.546875 32.953125 14.488281 32.304688 C 14.441406 31.65625 14.34375 30.730469 14.28125 29.617188 C 14.144531 27.390625 14.054688 24.425781 14.050781 21.457031 C 14.0625 19.976562 14.070312 18.492188 14.117188 17.101562 C 14.140625 16.40625 14.167969 15.734375 14.191406 15.097656 C 14.179688 14.800781 14.289062 14.398438 14.355469 14.078125 C 14.476562 13.777344 14.613281 13.496094 14.746094 13.234375 C 14.902344 12.992188 15.054688 12.761719 15.195312 12.539062 C 15.359375 12.339844 15.515625 12.148438 15.660156 11.96875 C 15.964844 11.621094 16.230469 11.324219 16.464844 11.097656 C 16.929688 10.632812 17.226562 10.40625 17.226562 10.40625 C 17.226562 10.40625 16.996094 10.703125 16.625 11.234375 Z M 16.625 11.234375 "/>
</g>
</svg>
