<?xml version="1.0" encoding="UTF-8"?>
<svg xmlns="http://www.w3.org/2000/svg" xmlns:xlink="http://www.w3.org/1999/xlink" width="35pt" height="35pt" viewBox="0 0 35 35" version="1.1">
<g id="surface1">
<path style=" stroke:none;fill-rule:nonzero;fill:rgb(0%,0%,0%);fill-opacity:1;" d="M 24.996094 16.140625 C 26.855469 14.210938 27.734375 11.925781 27.46875 9.710938 C 27.347656 8.695312 26.726562 6.4375 25.960938 4.21875 C 25.574219 3.105469 25.203125 2.152344 24.882812 1.464844 C 24.382812 0.382812 24.050781 0 23.609375 0 L 11.40625 0 C 10.96875 0 10.636719 0.382812 10.132812 1.464844 C 9.816406 2.152344 9.445312 3.105469 9.058594 4.21875 C 8.289062 6.4375 7.667969 8.695312 7.546875 9.710938 C 6.996094 14.355469 11.480469 18.609375 15.988281 19.492188 C 16.046875 20.296875 16.097656 22.546875 16.070312 25.226562 C 16.019531 29.542969 15.800781 31.113281 15.683594 31.355469 C 15.507812 31.667969 14.453125 32.089844 12.851562 32.257812 L 12.804688 32.261719 C 11.949219 32.351562 10.355469 32.519531 10.355469 33.792969 C 10.355469 34.398438 10.640625 34.691406 10.878906 34.832031 C 11.160156 34.996094 11.496094 35.015625 11.816406 35.015625 C 11.902344 35.015625 11.988281 35.015625 12.078125 35.015625 C 12.167969 35.011719 12.257812 35.011719 12.351562 35.011719 L 22.664062 35.011719 C 22.757812 35.011719 22.851562 35.011719 22.941406 35.015625 C 23.03125 35.015625 23.117188 35.015625 23.199219 35.015625 C 23.5625 35.015625 24.664062 35.015625 24.664062 33.792969 C 24.664062 32.519531 23.070312 32.351562 22.210938 32.261719 L 22.167969 32.257812 C 20.5625 32.089844 19.511719 31.667969 19.335938 31.359375 C 19.214844 31.109375 19.007812 29.539062 18.992188 25.234375 C 18.984375 22.46875 19.0625 20.230469 19.136719 19.457031 C 21.253906 18.996094 23.421875 17.773438 24.996094 16.140625 Z M 17.941406 25.128906 C 17.949219 29.0625 18.109375 31.332031 18.417969 31.875 C 18.96875 32.84375 20.933594 33.1875 22.054688 33.304688 L 22.101562 33.308594 C 22.554688 33.355469 23.613281 33.46875 23.613281 33.792969 C 23.613281 33.867188 23.605469 33.910156 23.597656 33.929688 C 23.5625 33.941406 23.464844 33.964844 23.199219 33.964844 C 23.121094 33.964844 23.042969 33.964844 22.960938 33.960938 C 22.863281 33.960938 22.765625 33.957031 22.664062 33.957031 L 12.351562 33.957031 C 12.253906 33.957031 12.152344 33.960938 12.058594 33.960938 C 11.976562 33.964844 11.894531 33.964844 11.816406 33.964844 C 11.554688 33.964844 11.457031 33.941406 11.417969 33.929688 C 11.414062 33.910156 11.40625 33.867188 11.40625 33.792969 C 11.40625 33.46875 12.464844 33.355469 12.917969 33.308594 L 12.960938 33.304688 C 14.085938 33.1875 16.050781 32.84375 16.597656 31.875 C 16.710938 31.671875 17.058594 31.0625 17.121094 25.105469 C 17.136719 23.695312 17.128906 22.210938 17.101562 21.03125 C 17.058594 19.082031 16.988281 18.941406 16.929688 18.820312 C 16.851562 18.65625 16.699219 18.542969 16.527344 18.519531 C 14.496094 18.207031 12.359375 17.070312 10.816406 15.476562 C 9.152344 13.761719 8.363281 11.757812 8.59375 9.835938 C 8.824219 7.875 10.855469 1.890625 11.554688 1.050781 L 23.464844 1.050781 C 24.160156 1.890625 26.191406 7.875 26.425781 9.835938 C 26.910156 13.902344 22.695312 17.761719 18.597656 18.492188 C 18.421875 18.523438 18.277344 18.636719 18.199219 18.804688 C 17.929688 19.378906 17.9375 24.894531 17.941406 25.128906 Z M 17.941406 25.128906 "/>
<path style=" stroke:none;fill-rule:nonzero;fill:rgb(0%,0%,0%);fill-opacity:1;" d="M 23.417969 14.574219 C 24.125 13.714844 24.6875 12.953125 24.785156 11.941406 C 24.792969 11.859375 24.808594 11.558594 24.53125 11.558594 C 21.039062 11.558594 13.972656 11.5625 10.476562 11.5625 C 10.175781 11.5625 10.222656 11.851562 10.230469 11.941406 C 10.332031 12.980469 10.910156 13.765625 11.644531 14.644531 C 12.867188 16.113281 14.476562 17.070312 16.265625 17.203125 C 16.570312 17.222656 17.070312 17.238281 17.570312 17.238281 C 18.046875 17.238281 18.480469 17.226562 18.730469 17.203125 C 20.558594 17.046875 22.191406 16.0625 23.417969 14.574219 Z M 23.417969 14.574219 "/>
</g>
</svg>
