<?xml version="1.0" encoding="UTF-8"?>
<svg xmlns="http://www.w3.org/2000/svg" xmlns:xlink="http://www.w3.org/1999/xlink" width="50pt" height="50pt" viewBox="0 0 50 50" version="1.1">
<g id="surface1">
<path style=" stroke:none;fill-rule:nonzero;fill:rgb(100%,87.843137%,0%);fill-opacity:1;" d="M 50 25 C 50 38.808594 38.808594 50 25 50 C 11.191406 50 0 38.808594 0 25 C 0 11.191406 11.191406 0 25 0 C 38.808594 0 50 11.191406 50 25 Z M 50 25 "/>
<path style=" stroke:none;fill-rule:nonzero;fill:rgb(100%,76.078431%,0%);fill-opacity:1;" d="M 49.503906 29.972656 L 33.746094 14.214844 L 33.617188 17.292969 L 23.582031 7.257812 L 14.515625 41.570312 L 22.851562 49.90625 C 23.558594 49.96875 24.277344 50 25 50 C 37.105469 50 47.199219 41.398438 49.503906 29.972656 Z M 49.503906 29.972656 "/>
<path style=" stroke:none;fill-rule:nonzero;fill:rgb(1.176471%,25.098039%,31.764706%);fill-opacity:1;" d="M 23.582031 16.835938 L 23.582031 7.257812 L 17.753906 7.257812 L 17.753906 16.835938 C 15.824219 17.875 14.515625 19.914062 14.515625 22.257812 L 14.515625 41.570312 L 26.820312 41.570312 L 26.820312 22.257812 C 26.820312 19.914062 25.507812 17.875 23.582031 16.835938 Z M 23.582031 16.835938 "/>
<path style=" stroke:none;fill-rule:nonzero;fill:rgb(1.176471%,25.098039%,31.764706%);fill-opacity:1;" d="M 26.820312 22.257812 C 26.820312 19.914062 25.507812 17.875 23.582031 16.835938 L 23.582031 7.257812 L 20.5625 7.257812 L 20.5625 41.570312 L 26.820312 41.570312 Z M 26.820312 22.257812 "/>
<path style=" stroke:none;fill-rule:nonzero;fill:rgb(100%,100%,100%);fill-opacity:1;" d="M 32.3125 14.214844 L 33.746094 14.214844 L 33.746094 21.640625 L 32.3125 21.640625 Z M 32.3125 14.214844 "/>
<path style=" stroke:none;fill-rule:nonzero;fill:rgb(94.901961%,96.470588%,98.823529%);fill-opacity:1;" d="M 32.945312 14.214844 L 33.746094 14.214844 L 33.746094 21.640625 L 32.945312 21.640625 Z M 32.945312 14.214844 "/>
<path style=" stroke:none;fill-rule:nonzero;fill:rgb(0%,38.039216%,49.411765%);fill-opacity:1;" d="M 36.261719 37.871094 C 36.261719 39.65625 34.816406 41.105469 33.027344 41.105469 C 31.242188 41.105469 29.792969 39.65625 29.792969 37.871094 C 29.792969 36.082031 31.242188 34.636719 33.027344 34.636719 C 34.816406 34.636719 36.261719 36.082031 36.261719 37.871094 Z M 36.261719 37.871094 "/>
<path style=" stroke:none;fill-rule:nonzero;fill:rgb(1.176471%,25.098039%,31.764706%);fill-opacity:1;" d="M 33.027344 34.636719 C 33 34.636719 32.972656 34.636719 32.945312 34.636719 L 32.945312 41.101562 C 32.972656 41.101562 33 41.105469 33.027344 41.105469 C 34.816406 41.105469 36.261719 39.65625 36.261719 37.871094 C 36.261719 36.082031 34.816406 34.636719 33.027344 34.636719 Z M 33.027344 34.636719 "/>
<path style=" stroke:none;fill-rule:nonzero;fill:rgb(0%,38.039216%,49.411765%);fill-opacity:1;" d="M 33.050781 32.378906 C 33.050781 34.164062 31.601562 35.613281 29.816406 35.613281 C 28.027344 35.613281 26.578125 34.164062 26.578125 32.378906 C 26.578125 30.589844 28.027344 29.140625 29.816406 29.140625 C 31.601562 29.140625 33.050781 30.589844 33.050781 32.378906 Z M 33.050781 32.378906 "/>
<path style=" stroke:none;fill-rule:nonzero;fill:rgb(1.176471%,25.098039%,31.764706%);fill-opacity:1;" d="M 39.476562 32.378906 C 39.476562 34.164062 38.027344 35.613281 36.242188 35.613281 C 34.457031 35.613281 33.007812 34.164062 33.007812 32.378906 C 33.007812 30.589844 34.457031 29.140625 36.242188 29.140625 C 38.027344 29.140625 39.476562 30.589844 39.476562 32.378906 Z M 39.476562 32.378906 "/>
<path style=" stroke:none;fill-rule:nonzero;fill:rgb(0%,38.039216%,49.411765%);fill-opacity:1;" d="M 33.050781 21.226562 C 33.050781 23.015625 31.601562 24.460938 29.816406 24.460938 C 28.027344 24.460938 26.578125 23.015625 26.578125 21.226562 C 26.578125 19.441406 28.027344 17.992188 29.816406 17.992188 C 31.601562 17.992188 33.050781 19.441406 33.050781 21.226562 Z M 33.050781 21.226562 "/>
<path style=" stroke:none;fill-rule:nonzero;fill:rgb(1.176471%,25.098039%,31.764706%);fill-opacity:1;" d="M 39.476562 21.226562 C 39.476562 23.015625 38.027344 24.460938 36.242188 24.460938 C 34.457031 24.460938 33.007812 23.015625 33.007812 21.226562 C 33.007812 19.441406 34.457031 17.992188 36.242188 17.992188 C 38.027344 17.992188 39.476562 19.441406 39.476562 21.226562 Z M 39.476562 21.226562 "/>
<path style=" stroke:none;fill-rule:nonzero;fill:rgb(0%,38.039216%,49.411765%);fill-opacity:1;" d="M 36.273438 26.753906 C 36.273438 28.539062 34.824219 29.988281 33.039062 29.988281 C 31.253906 29.988281 29.804688 28.539062 29.804688 26.753906 C 29.804688 24.964844 31.253906 23.519531 33.039062 23.519531 C 34.824219 23.519531 36.273438 24.964844 36.273438 26.753906 Z M 36.273438 26.753906 "/>
<path style=" stroke:none;fill-rule:nonzero;fill:rgb(1.176471%,25.098039%,31.764706%);fill-opacity:1;" d="M 33.039062 23.519531 C 33.007812 23.519531 32.976562 23.519531 32.945312 23.519531 L 32.945312 29.984375 C 32.976562 29.984375 33.007812 29.988281 33.039062 29.988281 C 34.824219 29.988281 36.273438 28.539062 36.273438 26.753906 C 36.273438 24.964844 34.824219 23.519531 33.039062 23.519531 Z M 33.039062 23.519531 "/>
<path style=" stroke:none;fill-rule:nonzero;fill:rgb(1.176471%,25.098039%,31.764706%);fill-opacity:1;" d="M 42.703125 26.753906 C 42.703125 28.539062 41.253906 29.988281 39.46875 29.988281 C 37.679688 29.988281 36.230469 28.539062 36.230469 26.753906 C 36.230469 24.964844 37.679688 23.519531 39.46875 23.519531 C 41.253906 23.519531 42.703125 24.964844 42.703125 26.753906 Z M 42.703125 26.753906 "/>
<path style=" stroke:none;fill-rule:nonzero;fill:rgb(0%,38.039216%,49.411765%);fill-opacity:1;" d="M 29.824219 26.753906 C 29.824219 28.539062 28.375 29.988281 26.589844 29.988281 C 24.804688 29.988281 23.355469 28.539062 23.355469 26.753906 C 23.355469 24.964844 24.804688 23.519531 26.589844 23.519531 C 28.375 23.519531 29.824219 24.964844 29.824219 26.753906 Z M 29.824219 26.753906 "/>
</g>
</svg>
